{
  "accessors": [
    {
      "bufferView": 2,
      "componentType": 5126,
      "count": 48,
      "max": [
        0.375,
        0.5,
        0.0
      ],
      "min": [
        -0.3557618260383606,
        -0.5,
        0.0
      ],
      "type": "VEC3"
    },
    {
      "bufferView": 2,
      "byteOffset": 576,
      "componentType": 5126,
      "count": 48,
      "max": [
        0.0,
        0.0,
        1.0
      ],
      "min": [
        0.0,
        0.0,
        1.0
      ],
      "type": "VEC3"
    },
    {
      "bufferView": 1,
      "componentType": 5126,
      "count": 48,
      "max": [
        0.8353747129440308,
        0.9982784986495972
      ],
      "min": [
        0.0016561094671487808,
        0.0019374568946659565
      ],
      "type": "VEC2"
    },
    {
      "bufferView": 1,
      "byteOffset": 384,
      "componentType": 5126,
      "count": 48,
      "max": [
        1.0,
        1.0
      ],
      "min": [
        0.025650858879089355,
        0.0
      ],
      "type": "VEC2"
    },
    {
      "bufferView": 0,
      "componentType": 5125,
      "count": 72,
      "type": "SCALAR"
    },
    {
      "bufferView": 2,
      "byteOffset": 1152,
      "componentType": 5126,
      "count": 2408,
      "max": [
        0.04470846801996231,
        0.06420063972473145,
        0.03330332413315773
      ],
      "min": [
        -0.024865901097655296,
        -0.01163368858397007,
        0.0
      ],
      "type": "VEC3"
    },
    {
      "bufferView": 2,
      "byteOffset": 30048,
      "componentType": 5126,
      "count": 2408,
      "max": [
        0.9985503554344177,
        0.9985503554344177,
        1.0
      ],
      "min": [
        -0.9998007416725159,
        -0.9985503554344177,
        -1.0
      ],
      "type": "VEC3"
    },
    {
      "bufferView": 1,
      "byteOffset": 768,
      "componentType": 5126,
      "count": 2408,
      "max": [
        0.997948408126831,
        0.9904792308807373
      ],
      "min": [
        0.0017038732767105103,
        0.0016515254974365234
      ],
      "type": "VEC2"
    },
    {
      "bufferView": 0,
      "byteOffset": 288,
      "componentType": 5125,
      "count": 9360,
      "type": "SCALAR"
    },
    {
      "bufferView": 2,
      "byteOffset": 58944,
      "componentType": 5126,
      "count": 34630,
      "max": [
        4.395526885986328,
        5.798171520233154,
        1.2213150262832642
      ],
      "min": [
        -4.724109172821045,
        -1.722430944442749,
        -1.3231627941131592
      ],
      "type": "VEC3"
    },
    {
      "bufferView": 2,
      "byteOffset": 474504,
      "componentType": 5126,
      "count": 34630,
      "max": [
        0.9998883008956909,
        0.999874472618103,
        0.9999533891677856
      ],
      "min": [
        -0.9996024966239929,
        -0.9998670220375061,
        -0.9999534487724304
      ],
      "type": "VEC3"
    },
    {
      "bufferView": 1,
      "byteOffset": 20032,
      "componentType": 5126,
      "count": 34630,
      "max": [
        0.998260498046875,
        0.998028576374054
      ],
      "min": [
        0.0017345426604151726,
        0.0017366649117320776
      ],
      "type": "VEC2"
    },
    {
      "bufferView": 0,
      "byteOffset": 37728,
      "componentType": 5125,
      "count": 86028,
      "type": "SCALAR"
    }
  ],
  "asset": {
    "extras": {
      "author": "Shahriar Shahrabi (https://sketchfab.com/shahriyarshahrabi)",
      "license": "CC-BY-4.0 (http://creativecommons.org/licenses/by/4.0/)",
      "source": "https://sketchfab.com/3d-models/an-iranian-lunch-a926e5adbf6e41a0b91858d296a0c3f4",
      "title": "An Iranian Lunch"
    },
    "generator": "Sketchfab-13.68.0",
    "version": "2.0"
  },
  "bufferViews": [
    {
      "buffer": 0,
      "byteLength": 381840,
      "name": "floatBufferViews",
      "target": 34963
    },
    {
      "buffer": 0,
      "byteLength": 297072,
      "byteOffset": 381840,
      "byteStride": 8,
      "name": "floatBufferViews",
      "target": 34962
    },
    {
      "buffer": 0,
      "byteLength": 890064,
      "byteOffset": 678912,
      "byteStride": 12,
      "name": "floatBufferViews",
      "target": 34962
    }
  ],
  "buffers": [
    {
      "byteLength": 1568976,
      "uri": "scene.bin"
    }
  ],
  "extensionsUsed": [
    "KHR_materials_unlit"
  ],
  "images": [
    {
      "uri": "textures/CarpetTransparent_baseColor.png"
    },
    {
      "uri": "textures/FinalMat_baseColor.jpeg"
    }
  ],
  "materials": [
    {
      "alphaMode": "BLEND",
      "doubleSided": true,
      "extensions": {
        "KHR_materials_unlit": {}
      },
      "name": "CarpetTransparent",
      "pbrMetallicRoughness": {
        "baseColorTexture": {
          "index": 0
        },
        "metallicFactor": 0.0
      }
    },
    {
      "alphaMode": "BLEND",
      "doubleSided": true,
      "extensions": {
        "KHR_materials_unlit": {}
      },
      "name": "Glass",
      "pbrMetallicRoughness": {
        "baseColorTexture": {
          "index": 0
        },
        "metallicFactor": 0.0
      }
    },
    {
      "doubleSided": true,
      "extensions": {
        "KHR_materials_unlit": {}
      },
      "name": "FinalMat",
      "pbrMetallicRoughness": {
        "baseColorTexture": {
          "index": 1
        },
        "metallicFactor": 0.0
      }
    }
  ],
  "meshes": [
    {
      "name": "Farsh.002_CarpetTransparent_0",
      "primitives": [
        {
          "attributes": {
            "NORMAL": 1,
            "POSITION": 0,
            "TEXCOORD_0": 2,
            "TEXCOORD_1": 3
          },
          "indices": 4,
          "material": 0,
          "mode": 4
        }
      ]
    },
    {
      "name": "Circle.021_Glass_0",
      "primitives": [
        {
          "attributes": {
            "NORMAL": 6,
            "POSITION": 5,
            "TEXCOORD_0": 7
          },
          "indices": 8,
          "material": 1,
          "mode": 4
        }
      ]
    },
    {
      "name": "final_FinalMat_0",
      "primitives": [
        {
          "attributes": {
            "NORMAL": 10,
            "POSITION": 9,
            "TEXCOORD_0": 11
          },
          "indices": 12,
          "material": 2,
          "mode": 4
        }
      ]
    }
  ],
  "nodes": [
    {
      "children": [
        1
      ],
      "matrix": [
        3.8202788829803467,
        0.0,
        0.0,
        0.0,
        0.0,
        8.48272315274811e-16,
        -3.8202788829803467,
        0.0,
        0.0,
        3.8202788829803467,
        8.48272315274811e-16,
        0.0,
        0.0,
        0.0,
        0.0,
        1.0
      ],
      "name": "Sketchfab_model"
    },
    {
      "children": [
        2
      ],
      "matrix": [
        0.009999999776482582,
        0.0,
        0.0,
        0.0,
        0.0,
        0.0,
        0.009999999776482582,
        0.0,
        0.0,
        -0.009999999776482582,
        0.0,
        0.0,
        0.0,
        0.0,
        0.0,
        1.0
      ],
      "name": "3c3eae533e3947ba81a4b5e70f175813.fbx"
    },
    {
      "children": [
        3,
        5,
        7
      ],
      "name": "RootNode"
    },
    {
      "children": [
        4
      ],
      "matrix": [
        100.0,
        0.0,
        0.0,
        0.0,
        0.0,
        -1.629206793918314e-05,
        -99.99999999999868,
        0.0,
        0.0,
        99.99999999999868,
        -1.629206793918314e-05,
        0.0,
        0.0,
        0.0,
        0.0,
        1.0
      ],
      "name": "Farsh.002"
    },
    {
      "mesh": 0,
      "name": "Farsh.002_CarpetTransparent_0"
    },
    {
      "children": [
        6
      ],
      "matrix": [
        100.0,
        0.0,
        0.0,
        0.0,
        0.0,
        -1.629206793918314e-05,
        -99.99999999999868,
        0.0,
        0.0,
        99.99999999999868,
        -1.629206793918314e-05,
        0.0,
        9.597431182861328,
        0.4067732095718384,
        15.388396263122559,
        1.0
      ],
      "name": "Circle.021"
    },
    {
      "mesh": 1,
      "name": "Circle.021_Glass_0"
    },
    {
      "children": [
        8
      ],
      "matrix": [
        1.7554886341941676,
        0.225249338348479,
        11.108180788727918,
        0.0,
        10.805879131283561,
        2.580570076447423,
        -1.760042447235396,
        0.0,
        -2.5836702645401592,
        10.945959801166834,
        0.18635216877315974,
        0.0,
        -17.05788230895996,
        1.5112190246582031,
        2.009523868560791,
        1.0
      ],
      "name": "final"
    },
    {
      "mesh": 2,
      "name": "final_FinalMat_0"
    }
  ],
  "samplers": [
    {
      "magFilter": 9729,
      "minFilter": 9987,
      "wrapS": 10497,
      "wrapT": 10497
    }
  ],
  "scene": 0,
  "scenes": [
    {
      "name": "Sketchfab_Scene",
      "nodes": [
        0
      ]
    }
  ],
  "textures": [
    {
      "sampler": 0,
      "source": 0
    },
    {
      "sampler": 0,
      "source": 1
    }
  ]
}
